<svg xmlns="http://www.w3.org/2000/svg" viewBox="0 0 672.9 407.88"><defs><style>.cls-1{font-size:79.99px;fill:#fff;font-family:COCOGOOSE-DemiBold, COCOGOOSE;font-weight:300;}.cls-2{fill:#fc3556;}.cls-3{fill:#6065ff;}</style></defs><title>ideia-logo</title><g id="logo-dark-bkg-vertical"><text class="cls-1" transform="translate(-3.2 391.35)">cotizaciones<tspan class="cls-2" x="566.04" y="0">py</tspan></text><path class="cls-2" d="M444.45,63.08V222.8a55.59,55.59,0,0,1-55.67,55.67H229.06l89.07-89.07v44.53h70.62a11.16,11.16,0,0,0,11.16-10.88,2.62,2.62,0,0,0,0-.28V107.61Z"/><path class="cls-3" d="M444.43.13H284.75A55.58,55.58,0,0,0,229.08,55.8V215.49L273.61,171V55.83a11.18,11.18,0,0,1,11.17-11.17h70.91l-.29.29V89.16l44.5-44.5,0,0h0L444.43.13Z"/></g></svg>