<svg xmlns="http://www.w3.org/2000/svg" viewBox="0 0 880.21 174.03"><defs><style>.cls-1{fill:#44444b;}.cls-2{fill:#fc3556;}.cls-3{fill:#6065ff;}</style></defs><title>ideia-logo</title><g id="logo-white-bkg"><path class="cls-1" d="M201.5,99.87a3.39,3.39,0,0,1,2.05-.68,1.58,1.58,0,0,1,1.23.76l1,1.41,3,4.3a3,3,0,0,1,.35.62,1.72,1.72,0,0,1,.12.58,1.74,1.74,0,0,1-.47,1.21,7.18,7.18,0,0,1-1.23,1.09,34.29,34.29,0,0,1-7.82,4.26,25.46,25.46,0,0,1-9.23,1.62,27,27,0,0,1-7.36-1,28.42,28.42,0,0,1-16.71-12.81,27.25,27.25,0,0,1-2.85-6.69,28.33,28.33,0,0,1,0-14.92,27.25,27.25,0,0,1,2.85-6.69,28.2,28.2,0,0,1,16.71-12.81,28,28,0,0,1,16.31.45,26.72,26.72,0,0,1,7.5,3.92l0,0a13.48,13.48,0,0,0,1.17,1,1.66,1.66,0,0,1,.58,1.38c0,.17,0,.37,0,.6a1.29,1.29,0,0,1-.24.64L205,73.44a2.37,2.37,0,0,1-1.88,1.28,2.68,2.68,0,0,1-1.62-.73,18.37,18.37,0,0,0-5.07-3,16,16,0,0,0-6-1.15,14.45,14.45,0,0,0-6.25,1.38A17.1,17.1,0,0,0,179,75a17.74,17.74,0,0,0-3.5,5.5,17.76,17.76,0,0,0,0,13.24A17.1,17.1,0,0,0,179,99.14a16.44,16.44,0,0,0,5.13,3.65,15,15,0,0,0,6.27,1.34,14.49,14.49,0,0,0,6.27-1.26A24.2,24.2,0,0,0,201.5,99.87Z"/><path class="cls-1" d="M216.29,87.08a27.82,27.82,0,0,1,8.22-19.84,28.39,28.39,0,0,1,12.33-7.17,28.07,28.07,0,0,1,14.85,0,28.22,28.22,0,0,1,6.67,2.82A28.59,28.59,0,0,1,264,67.24a27.55,27.55,0,0,1,7.22,12.36,27.9,27.9,0,0,1-2.83,21.61,29.24,29.24,0,0,1-4.39,5.65A27.67,27.67,0,0,1,251.69,114a28.07,28.07,0,0,1-14.85,0,28,28,0,0,1-12.33-7.18,28.8,28.8,0,0,1-4.38-5.65,27.52,27.52,0,0,1-3.84-14.13Zm12,0a17.48,17.48,0,0,0,1.2,6.46,16.14,16.14,0,0,0,3.32,5.3,15.68,15.68,0,0,0,5,3.58,15.19,15.19,0,0,0,6.38,1.33,14.65,14.65,0,0,0,6.24-1.33,15.24,15.24,0,0,0,5-3.58,16.33,16.33,0,0,0,3.26-5.3,18.36,18.36,0,0,0,0-12.9,17.2,17.2,0,0,0-3.26-5.39,15.91,15.91,0,0,0-5-3.71,14.25,14.25,0,0,0-6.24-1.38,14.77,14.77,0,0,0-6.38,1.38,16.36,16.36,0,0,0-5,3.71,17,17,0,0,0-3.32,5.39A17.53,17.53,0,0,0,228.31,87.08Z"/><path class="cls-1" d="M301.46,114.06a21.09,21.09,0,0,1-6.33-1A15.25,15.25,0,0,1,290,110.2a13.33,13.33,0,0,1-3.48-4.56,14.36,14.36,0,0,1-1.28-6.17V70.67h-4.9a2.74,2.74,0,0,1-1.85-.55,2.33,2.33,0,0,1-.62-1.83V62.18a2.14,2.14,0,0,1,.62-1.75,2.85,2.85,0,0,1,1.85-.51h4.9c0-1.5,0-3,0-4.49s0-3,0-4.5a1.7,1.7,0,0,1,.54-1.34,4.67,4.67,0,0,1,1.64-.88l1.75-.61c.68-.25,1.38-.48,2.11-.71s1.42-.42,2.11-.57a7.71,7.71,0,0,1,1.7-.24,1.8,1.8,0,0,1,1.73.73,3.92,3.92,0,0,1,.4,1.92c0,1.79,0,3.57,0,5.34s0,3.57,0,5.35h6.14a2.35,2.35,0,0,1,1.7.58,2.38,2.38,0,0,1,.6,1.8v5.82a2.65,2.65,0,0,1-.6,1.95,2.27,2.27,0,0,1-1.7.6H297.2v8.09c0,1,0,1.89,0,2.75s0,1.78,0,2.77v8.11a.55.55,0,0,1,0,.18.88.88,0,0,0,0,.16v5.6a6,6,0,0,0,1.11,4,4.57,4.57,0,0,0,3.58,1.24,1.69,1.69,0,0,1,1.41.64,2.37,2.37,0,0,1,.51,1.53v5.93a2.15,2.15,0,0,1-2.35,2.34Z"/><path class="cls-1" d="M314.17,43.65a2.24,2.24,0,0,1,2.51-2.57h7.16a2.77,2.77,0,0,1,1.92.65,2.44,2.44,0,0,1,.73,1.92V50a3,3,0,0,1-.69,1.86,2.28,2.28,0,0,1-1.91.87h-7.17q-2.55,0-2.55-2.73Zm0,18.88a2.75,2.75,0,0,1,.64-1.86,2.31,2.31,0,0,1,1.87-.75h7.08a2.62,2.62,0,0,1,1,.2,2.67,2.67,0,0,1,.87.55,3.23,3.23,0,0,1,.64.83,2.16,2.16,0,0,1,.26,1v49c0,1.71-.9,2.56-2.69,2.56h-7.08a2.26,2.26,0,0,1-2.55-2.56Z"/><path class="cls-1" d="M338.72,62.64a2.79,2.79,0,0,1,.75-2,2.72,2.72,0,0,1,2.06-.76h38.54a3.38,3.38,0,0,1,2,.62,2.27,2.27,0,0,1,.86,2v5.5a5.18,5.18,0,0,1-.17,1.45,3.15,3.15,0,0,1-.81,1.19Q374.82,78.82,367.77,87t-14.22,16.37h26.77a3,3,0,0,1,2.05.68,2.79,2.79,0,0,1,.77,2.18v4.9a3.2,3.2,0,0,1-.77,2,2.48,2.48,0,0,1-2.05,1H340.89a2.69,2.69,0,0,1-2-.91,3,3,0,0,1-.86-2.07v-4.44a4.49,4.49,0,0,1,.11-1,2.2,2.2,0,0,1,.45-.92l4.3-4.91Q345.28,97.08,348,94c1.79-2.07,3.63-4.17,5.52-6.32L359,81.36l5.14-5.87,4.3-4.91H341.53a2.82,2.82,0,0,1-2.06-.72,3,3,0,0,1-.75-2.25Z"/><path class="cls-1" d="M447,111.55a2.31,2.31,0,0,1-.32,1.26,2.25,2.25,0,0,1-.83.76,3.51,3.51,0,0,1-1.17.39,8.83,8.83,0,0,1-1.39.1h-5.33a2.19,2.19,0,0,1-1.89-.72,4.93,4.93,0,0,1-.79-1.84l-.26-3.62a25,25,0,0,1-3.3,2.79,23.47,23.47,0,0,1-3.9,2.26,22.07,22.07,0,0,1-4.44,1.49,21.3,21.3,0,0,1-4.81.54,27.48,27.48,0,0,1-7.4-1,28.57,28.57,0,0,1-6.67-2.82,27.2,27.2,0,0,1-5.65-4.37,27.93,27.93,0,0,1-4.35-5.67,28.76,28.76,0,0,1-2.81-6.69,28.33,28.33,0,0,1,0-14.92,28.76,28.76,0,0,1,2.81-6.69,27.66,27.66,0,0,1,10-10A28.55,28.55,0,0,1,411.12,60a27.09,27.09,0,0,1,7.4-1,23.09,23.09,0,0,1,5.2.57,22.51,22.51,0,0,1,4.62,1.62,21,21,0,0,1,4,2.52,24.1,24.1,0,0,1,3.32,3.22l.6-4.56a11,11,0,0,1,.41-1.26,2.39,2.39,0,0,1,.46-.79,1.48,1.48,0,0,1,.71-.41,4.54,4.54,0,0,1,1.06-.1h4.27a7.81,7.81,0,0,1,1.36.12,5,5,0,0,1,1.24.41,2.08,2.08,0,0,1,1.19,2ZM402.62,87a17.64,17.64,0,0,0,1.19,6.46,16.89,16.89,0,0,0,3.33,5.35,16,16,0,0,0,5,3.64,14.64,14.64,0,0,0,6.29,1.35,15.58,15.58,0,0,0,6.46-1.35,16.57,16.57,0,0,0,5.22-3.64,17.16,17.16,0,0,0,3.5-5.35,16.82,16.82,0,0,0,0-12.87,17,17,0,0,0-3.5-5.35,16.82,16.82,0,0,0-5.22-3.67,15.43,15.43,0,0,0-6.46-1.36,14.51,14.51,0,0,0-6.29,1.36,16.22,16.22,0,0,0-5,3.67,16.78,16.78,0,0,0-3.33,5.35A17.53,17.53,0,0,0,402.62,87Z"/><path class="cls-1" d="M494.48,99.87a4,4,0,0,1,1.21-.58,4.11,4.11,0,0,1,.84-.1,1.58,1.58,0,0,1,1.23.76l1,1.41,3,4.3a2.91,2.91,0,0,1,.34.62,1.53,1.53,0,0,1,.13.58,1.79,1.79,0,0,1-.47,1.21,7.18,7.18,0,0,1-1.23,1.09,34.15,34.15,0,0,1-7.83,4.26,25.42,25.42,0,0,1-9.23,1.62,26.88,26.88,0,0,1-7.35-1,28.22,28.22,0,0,1-6.65-2.81,28.45,28.45,0,0,1-10.06-10,27.27,27.27,0,0,1-2.86-6.69,28.33,28.33,0,0,1,0-14.92,27.27,27.27,0,0,1,2.86-6.69,28.45,28.45,0,0,1,10.06-10,28.22,28.22,0,0,1,6.65-2.81,26.88,26.88,0,0,1,7.35-1,27.32,27.32,0,0,1,9,1.45,26.72,26.72,0,0,1,7.5,3.92l0,0a11.07,11.07,0,0,0,1.17,1,1.65,1.65,0,0,1,.57,1.38c0,.17,0,.37,0,.6a1.19,1.19,0,0,1-.23.64l-3.5,5.33a2.35,2.35,0,0,1-1.87,1.28,2.63,2.63,0,0,1-1.62-.73,18.29,18.29,0,0,0-5.08-3,16,16,0,0,0-6-1.15,14.45,14.45,0,0,0-6.25,1.38A17,17,0,0,0,472,75a17.74,17.74,0,0,0-3.5,5.5A17.57,17.57,0,0,0,472,99.14a16.6,16.6,0,0,0,5.14,3.65,15,15,0,0,0,6.27,1.34,14.42,14.42,0,0,0,6.26-1.26A24.28,24.28,0,0,0,494.48,99.87Z"/><path class="cls-1" d="M511.27,43.65a2.25,2.25,0,0,1,2.52-2.57H521a2.77,2.77,0,0,1,1.92.65,2.43,2.43,0,0,1,.72,1.92V50a3,3,0,0,1-.68,1.86,2.29,2.29,0,0,1-1.92.87h-7.16c-1.7,0-2.56-.91-2.56-2.73Zm0,18.88a2.8,2.8,0,0,1,.64-1.86,2.33,2.33,0,0,1,1.88-.75h7.08a2.53,2.53,0,0,1,1,.2,2.61,2.61,0,0,1,.88.55,3.47,3.47,0,0,1,.64.83,2.15,2.15,0,0,1,.25,1v49c0,1.71-.89,2.56-2.68,2.56h-7.08a2.26,2.26,0,0,1-2.56-2.56Z"/><path class="cls-1" d="M535.49,87.08a27.71,27.71,0,0,1,8.22-19.84,28.14,28.14,0,0,1,5.66-4.35A28.76,28.76,0,0,1,556,60.07a28,28,0,0,1,14.84,0,28,28,0,0,1,12.31,7.17,28.12,28.12,0,0,1,7.22,27.3,27.27,27.27,0,0,1-2.83,6.67,28.47,28.47,0,0,1-4.39,5.65A27.67,27.67,0,0,1,570.88,114,28,28,0,0,1,556,114a28.73,28.73,0,0,1-6.67-2.81,27.88,27.88,0,0,1-5.66-4.37,28.47,28.47,0,0,1-4.39-5.65,27.64,27.64,0,0,1-3.83-14.13Zm12,0a17.48,17.48,0,0,0,1.19,6.46,16.17,16.17,0,0,0,3.33,5.3,15.57,15.57,0,0,0,5.05,3.58,15.11,15.11,0,0,0,6.37,1.33,14.7,14.7,0,0,0,6.25-1.33,15.3,15.3,0,0,0,5-3.58,16.33,16.33,0,0,0,3.26-5.3,18.36,18.36,0,0,0,0-12.9,17.2,17.2,0,0,0-3.26-5.39,16,16,0,0,0-5-3.71,14.3,14.3,0,0,0-6.25-1.38,14.7,14.7,0,0,0-6.37,1.38A16.24,16.24,0,0,0,552,75.25a17,17,0,0,0-3.33,5.39A17.52,17.52,0,0,0,547.51,87.08Z"/><path class="cls-1" d="M601.73,61.16a2.36,2.36,0,0,1,1-.85,1.43,1.43,0,0,1,1-.36l1.28,0h4.31a2.15,2.15,0,0,1,1.83.81,4.65,4.65,0,0,1,.81,1.8l.47,4.51a19.21,19.21,0,0,1,2.41-2.85,15.9,15.9,0,0,1,3.39-2.52,19.49,19.49,0,0,1,4.47-1.79,21.92,21.92,0,0,1,5.67-.68,21.19,21.19,0,0,1,9,1.81,19.06,19.06,0,0,1,6.61,5A21.54,21.54,0,0,1,648,73.4a29.25,29.25,0,0,1,1.39,9.16V111a3.24,3.24,0,0,1-.73,2.31,2.74,2.74,0,0,1-2.09.76h-6.48a3.06,3.06,0,0,1-2.28-.64,3.42,3.42,0,0,1-.57-2.26V82.77a13.13,13.13,0,0,0-.77-4.41,12.13,12.13,0,0,0-2.24-3.86,10.84,10.84,0,0,0-3.64-2.72,11.87,11.87,0,0,0-9.1-.24,13.21,13.21,0,0,0-3.86,2.24,12.28,12.28,0,0,0-2.9,3.52A9.71,9.71,0,0,0,613.54,82v27.63a14.66,14.66,0,0,1-.09,1.62,5.22,5.22,0,0,1-.36,1.45,2.51,2.51,0,0,1-.79,1,2.17,2.17,0,0,1-1.32.38h-7a2.83,2.83,0,0,1-2.07-.66,2.57,2.57,0,0,1-.66-1.9V62.44A2.19,2.19,0,0,1,601.73,61.16Z"/><path class="cls-1" d="M703.44,108.09a30.48,30.48,0,0,1-8.21,5,25.5,25.5,0,0,1-9.78,1.83,27.78,27.78,0,0,1-10.91-2.18,28.5,28.5,0,0,1-15.2-14.85,26.59,26.59,0,0,1-2.28-11,28.69,28.69,0,0,1,3.6-14,27.58,27.58,0,0,1,4.2-5.67,26.62,26.62,0,0,1,5.52-4.41A27.09,27.09,0,0,1,677,60.07a27.93,27.93,0,0,1,7.52-1,26.64,26.64,0,0,1,6.4.79,28.16,28.16,0,0,1,6,2.24,28.54,28.54,0,0,1,5.3,3.52,25.28,25.28,0,0,1,4.35,4.66A25,25,0,0,1,710.3,78a32.82,32.82,0,0,1,1.2,9.16,16.75,16.75,0,0,1-.11,2.07,2.55,2.55,0,0,1-.53,1.34,2.45,2.45,0,0,1-1.28.75,9.29,9.29,0,0,1-2.39.24H669.38A14.44,14.44,0,0,0,671.49,97a16.48,16.48,0,0,0,3.69,4,15.84,15.84,0,0,0,4.64,2.47,16.11,16.11,0,0,0,5,.83,17.76,17.76,0,0,0,3.69-.38,19,19,0,0,0,3.3-1,17.26,17.26,0,0,0,2.84-1.47A16.54,16.54,0,0,0,697,99.7s0,0,0,0a5.86,5.86,0,0,1,1-.74,1.85,1.85,0,0,1,1-.28,2,2,0,0,1,.88.26,3.19,3.19,0,0,1,1,.85c.76.94,1.42,1.72,2,2.34s1,1.15,1.32,1.58a6.41,6.41,0,0,1,.74,1.11,2.05,2.05,0,0,1,.24.94A3.19,3.19,0,0,1,703.44,108.09ZM684.51,69.65a13.59,13.59,0,0,0-4.9.91,16.2,16.2,0,0,0-4.37,2.5,17.12,17.12,0,0,0-3.45,3.7,15,15,0,0,0-2.15,4.61h30.18a16.68,16.68,0,0,0-2.07-4.76,15.43,15.43,0,0,0-3.35-3.71,15,15,0,0,0-4.47-2.4A16.78,16.78,0,0,0,684.51,69.65Z"/><path class="cls-1" d="M727.4,98.8a9,9,0,0,0,2.26,2.43,14.77,14.77,0,0,0,2.79,1.68,12.78,12.78,0,0,0,2.73,1,9.64,9.64,0,0,0,2.06.3,18.39,18.39,0,0,0,2.82-.25,11.41,11.41,0,0,0,3-.92,7.18,7.18,0,0,0,2.43-1.79,4.16,4.16,0,0,0,1-2.88,4.59,4.59,0,0,0-.79-2.77,6.24,6.24,0,0,0-2.13-1.77,15.1,15.1,0,0,0-3.07-1.17c-1.15-.31-2.37-.65-3.65-1a36.3,36.3,0,0,1-7.63-2.88,19.61,19.61,0,0,1-5.18-3.86,13.82,13.82,0,0,1-3-4.77,16.45,16.45,0,0,1-.94-5.67,14.44,14.44,0,0,1,1.37-6.31,14.25,14.25,0,0,1,3.83-4.9,17.91,17.91,0,0,1,6-3.18A24.84,24.84,0,0,1,739,58.9a24.47,24.47,0,0,1,5.33.53,17.78,17.78,0,0,1,4.35,1.6,18.21,18.21,0,0,1,3.77,2.69,40.3,40.3,0,0,1,3.6,3.79,2.34,2.34,0,0,1,.64,1.49,1.87,1.87,0,0,1-.85,1.45c-.43.35-.93.77-1.51,1.28l-1.73,1.5A18.3,18.3,0,0,1,751,74.46a2.49,2.49,0,0,1-1.28.51,2.46,2.46,0,0,1-1.83-1.11A20.56,20.56,0,0,0,746,71.92a9.71,9.71,0,0,0-2-1.36,9.85,9.85,0,0,0-2.21-.81,11.84,11.84,0,0,0-2.6-.28,9.12,9.12,0,0,0-2.41.35,7.58,7.58,0,0,0-2.3,1,6.53,6.53,0,0,0-1.75,1.64,3.56,3.56,0,0,0-.71,2.15A3.36,3.36,0,0,0,733,77a8.15,8.15,0,0,0,2.21,1.66,15.89,15.89,0,0,0,2.92,1.17c1,.31,2,.6,2.93.85a53.81,53.81,0,0,1,7.19,2.56,21.89,21.89,0,0,1,5.64,3.52,14.8,14.8,0,0,1,3.69,4.86,15.29,15.29,0,0,1,1.32,6.54,15.23,15.23,0,0,1-5.93,12.4,20,20,0,0,1-6.59,3.33,28.45,28.45,0,0,1-8.29,1.15,26.24,26.24,0,0,1-5.45-.58,23.36,23.36,0,0,1-5.31-1.78,20.71,20.71,0,0,1-4.69-3.12A16.64,16.64,0,0,1,719,105a3.79,3.79,0,0,1-.64-1.92,1.62,1.62,0,0,1,.28-1,3.85,3.85,0,0,1,.74-.79l4.78-3.67a2.32,2.32,0,0,1,1.15-.38,1.57,1.57,0,0,1,1.06.41A7.78,7.78,0,0,1,727.4,98.8Z"/><path class="cls-2" d="M770,60.18a3.62,3.62,0,0,1,1.13-.32,11,11,0,0,1,1.13-.06h4.31a2.11,2.11,0,0,1,1.81.72,4.74,4.74,0,0,1,.75,1.84l.89,5.2a38.88,38.88,0,0,1,3.18-3.24A20.93,20.93,0,0,1,787,61.59a19.41,19.41,0,0,1,4.51-1.9A20.26,20.26,0,0,1,797,59a26.75,26.75,0,0,1,7.39,1A27.46,27.46,0,0,1,811,62.8a27,27,0,0,1,5.52,4.35,27.65,27.65,0,0,1,4.24,5.65,28.14,28.14,0,0,1,2.73,6.69,29.47,29.47,0,0,1,0,14.92,28.14,28.14,0,0,1-2.73,6.69,27.78,27.78,0,0,1-4.24,5.67,26.43,26.43,0,0,1-5.52,4.37A27.18,27.18,0,0,1,797,115a20.39,20.39,0,0,1-5.1-.6,19.55,19.55,0,0,1-4.3-1.64,22,22,0,0,1-3.67-2.43,34.16,34.16,0,0,1-3.17-3v20.76a2.56,2.56,0,0,1-.64,1.74,2.42,2.42,0,0,1-1.92.73h-7.08a2.91,2.91,0,0,1-1.77-.66,2.16,2.16,0,0,1-.87-1.81V62.31A2,2,0,0,1,770,60.18ZM812.27,87a17.45,17.45,0,0,0-4.54-11.74,16,16,0,0,0-5-3.63,14.79,14.79,0,0,0-6.27-1.34,15.41,15.41,0,0,0-6.33,1.32,17.24,17.24,0,0,0-5.2,3.56,17.63,17.63,0,0,0-3.58,5.22A15.67,15.67,0,0,0,780,86.65V87a16.34,16.34,0,0,0,1.3,6.48,17,17,0,0,0,8.78,9,15.3,15.3,0,0,0,6.41,1.36,14.51,14.51,0,0,0,6.27-1.36,15.92,15.92,0,0,0,5-3.67A17.65,17.65,0,0,0,812.27,87Z"/><path class="cls-2" d="M853.53,129.71a3.23,3.23,0,0,1-1,1.38,2.55,2.55,0,0,1-1.58.45h-8a2.54,2.54,0,0,1-1.64-.4,1.32,1.32,0,0,1-.45-1,5,5,0,0,1,.11-.85,1.69,1.69,0,0,1,.19-.64l7.5-19.14-19-46.34a.21.21,0,0,0,0-.12v-.39a2.39,2.39,0,0,1-.22-1.06,1.41,1.41,0,0,1,.51-1.15,2.42,2.42,0,0,1,1.58-.43h7.72a2.5,2.5,0,0,1,2.51,1.79l.77,2,1.92,5.34q1.07,3,2.21,6.12c.77,2.11,1.55,4.21,2.33,6.33s1.52,4.11,2.21,6,1.33,3.54,1.9,5,1,2.66,1.37,3.52L867,61.8a3.35,3.35,0,0,1,1-1.39A2.64,2.64,0,0,1,869.6,60h8a2.5,2.5,0,0,1,1.64.4,1.3,1.3,0,0,1,.44,1,4.91,4.91,0,0,1-.1.85,1.92,1.92,0,0,1-.19.64Z"/><path class="cls-2" d="M134.77,39.37v99.84A34.78,34.78,0,0,1,100,174H.13l55.68-55.68v27.84H100a7,7,0,0,0,7-6.8V67.21Z"/><path class="cls-3" d="M134.75,0H34.93A34.78,34.78,0,0,0,.13,34.82v99.82L28,106.8v-72a7,7,0,0,1,7-7H79.27l-.18.18V55.67l27.82-27.81,0,0h0L134.75,0Z"/></g></svg>