<svg xmlns="http://www.w3.org/2000/svg" viewBox="0 0 566.66 174"><defs><style>.cls-1{fill:#fc3556;}.cls-2{fill:#6065ff;}.cls-3{fill:#fff;}</style></defs><title>ideia-logo</title><g id="logo-dark-bkg"><path class="cls-1" d="M134.66,39.36V139.2A34.73,34.73,0,0,1,99.86,174H0L55.7,118.32v27.84H99.84a7,7,0,0,0,7-6.8V67.19Z"/><path class="cls-2" d="M134.63,0H34.82a35.48,35.48,0,0,0-7,.69A34.82,34.82,0,0,0,0,34.81v99.82l27.84-27.84v-72a7,7,0,0,1,7-7H79.16L79,28V55.66L106.8,27.85l0,0h0L134.63,0Z"/><path class="cls-3" d="M201.39,99.85a4,4,0,0,1,1.21-.57,4.21,4.21,0,0,1,.84-.11,1.62,1.62,0,0,1,1.23.77l1,1.41,3,4.3a2.91,2.91,0,0,1,.34.62,1.46,1.46,0,0,1,.13.58,1.81,1.81,0,0,1-.47,1.21,7.18,7.18,0,0,1-1.23,1.09,34.15,34.15,0,0,1-7.83,4.26,25.42,25.42,0,0,1-9.23,1.62,26.88,26.88,0,0,1-7.35-1,28.33,28.33,0,0,1-12.3-7.16,28.82,28.82,0,0,1-4.41-5.65,27.6,27.6,0,0,1-2.86-6.69,28.33,28.33,0,0,1,0-14.92,27.51,27.51,0,0,1,2.86-6.7,28.53,28.53,0,0,1,10.06-10,28.25,28.25,0,0,1,6.65-2.82,27.28,27.28,0,0,1,7.35-1,27.59,27.59,0,0,1,9,1.45,27.25,27.25,0,0,1,7.5,3.92l0,0a11.07,11.07,0,0,0,1.17,1,1.64,1.64,0,0,1,.57,1.38c0,.17,0,.37,0,.6a1.19,1.19,0,0,1-.23.64l-3.5,5.33A2.34,2.34,0,0,1,203,74.7a2.67,2.67,0,0,1-1.62-.72,18.31,18.31,0,0,0-5.08-3,16.15,16.15,0,0,0-6-1.15,14.46,14.46,0,0,0-6.25,1.39A16.81,16.81,0,0,0,178.92,75a17.9,17.9,0,0,0-3.49,5.5,17.57,17.57,0,0,0,3.47,18.65,16.57,16.57,0,0,0,5.14,3.64,14.85,14.85,0,0,0,6.27,1.35,14.42,14.42,0,0,0,6.26-1.26A24.32,24.32,0,0,0,201.39,99.85Z"/><path class="cls-3" d="M216.18,87.07a27.79,27.79,0,0,1,1-7.49,27.91,27.91,0,0,1,12.89-16.71,28.9,28.9,0,0,1,6.66-2.81,28.07,28.07,0,0,1,14.85,0,28,28,0,0,1,12.31,7.16,27.9,27.9,0,0,1,4.38,34,28.8,28.8,0,0,1-4.38,5.65A28.07,28.07,0,0,1,251.58,114a28.07,28.07,0,0,1-14.85,0,28.5,28.5,0,0,1-6.66-2.82,27.27,27.27,0,0,1-5.67-4.36A28.85,28.85,0,0,1,220,101.2a27.84,27.84,0,0,1-2.83-6.67A27.52,27.52,0,0,1,216.18,87.07Zm12,0a17.63,17.63,0,0,0,1.19,6.45,16.27,16.27,0,0,0,3.33,5.31,15.72,15.72,0,0,0,5.05,3.58,15.29,15.29,0,0,0,6.37,1.32,14.81,14.81,0,0,0,6.25-1.32,15.34,15.34,0,0,0,5-3.58,16.3,16.3,0,0,0,3.27-5.31,18.34,18.34,0,0,0,0-12.89,17.11,17.11,0,0,0-3.27-5.39,15.71,15.71,0,0,0-5-3.71,14.27,14.27,0,0,0-6.25-1.39,14.73,14.73,0,0,0-6.37,1.39,16.09,16.09,0,0,0-5.05,3.71,17.08,17.08,0,0,0-3.33,5.39A17.73,17.73,0,0,0,228.2,87.07Z"/><path class="cls-3" d="M301.35,114.05a21,21,0,0,1-6.33-1,15.37,15.37,0,0,1-5.16-2.84,13.37,13.37,0,0,1-3.47-4.57,14.14,14.14,0,0,1-1.28-6.16V70.65h-4.9a2.7,2.7,0,0,1-1.86-.55,2.32,2.32,0,0,1-.62-1.82V62.16a2.15,2.15,0,0,1,.62-1.74,2.87,2.87,0,0,1,1.86-.51h4.9c0-1.5,0-3,0-4.5s0-3,0-4.49a1.73,1.73,0,0,1,.53-1.34,4.82,4.82,0,0,1,1.65-.88l1.74-.62c.69-.24,1.39-.47,2.11-.7s1.43-.42,2.11-.58a8.33,8.33,0,0,1,1.71-.23,1.8,1.8,0,0,1,1.72.72,4,4,0,0,1,.41,1.92c0,1.79,0,3.58,0,5.35s0,3.56,0,5.35h6.14a2.34,2.34,0,0,1,1.7.58,2.38,2.38,0,0,1,.6,1.8v5.82a2.68,2.68,0,0,1-.6,2,2.3,2.3,0,0,1-1.7.59h-6.14v8.09c0,1,0,1.9,0,2.76s0,1.78,0,2.77v8.11a1,1,0,0,1,0,.17.5.5,0,0,0,0,.17v5.59a6,6,0,0,0,1.11,4.06,4.59,4.59,0,0,0,3.58,1.24,1.71,1.71,0,0,1,1.4.63,2.4,2.4,0,0,1,.51,1.54v5.92a2.14,2.14,0,0,1-2.34,2.35Z"/><path class="cls-3" d="M314.05,43.64a2.25,2.25,0,0,1,2.52-2.57h7.16a2.85,2.85,0,0,1,1.92.64,2.45,2.45,0,0,1,.72,1.93V50a3,3,0,0,1-.68,1.86,2.27,2.27,0,0,1-1.92.88h-7.16c-1.7,0-2.56-.91-2.56-2.74Zm0,18.87a2.77,2.77,0,0,1,.64-1.85,2.33,2.33,0,0,1,1.88-.75h7.07a2.73,2.73,0,0,1,1,.19,2.81,2.81,0,0,1,.88.56,3.47,3.47,0,0,1,.64.83,2.08,2.08,0,0,1,.25,1v49c0,1.71-.89,2.56-2.68,2.56h-7.08a2.26,2.26,0,0,1-2.56-2.56Z"/><path class="cls-3" d="M338.61,62.63a2.59,2.59,0,0,1,2.81-2.8H380a3.35,3.35,0,0,1,2.05.62,2.27,2.27,0,0,1,.85,2v5.5a4.88,4.88,0,0,1-.17,1.45,3.06,3.06,0,0,1-.81,1.19q-7.15,8.22-14.21,16.37l-14.22,16.37h26.77a3,3,0,0,1,2.05.68,2.76,2.76,0,0,1,.76,2.17v4.91a3.18,3.18,0,0,1-.76,2,2.5,2.5,0,0,1-2.05,1H340.78a2.71,2.71,0,0,1-2-.92,3,3,0,0,1-.85-2.07v-4.44a4.64,4.64,0,0,1,.11-1,2.16,2.16,0,0,1,.45-.91l4.3-4.91c1.62-1.85,3.33-3.8,5.12-5.87s3.63-4.16,5.52-6.31l5.54-6.32,5.13-5.86,4.31-4.91H341.42a2.87,2.87,0,0,1-2.07-.72,3,3,0,0,1-.74-2.25Z"/><path class="cls-3" d="M446.84,111.53a2.26,2.26,0,0,1-.32,1.26,2.35,2.35,0,0,1-.83.77,3.8,3.8,0,0,1-1.18.38,8.77,8.77,0,0,1-1.38.11H437.8a2.23,2.23,0,0,1-1.9-.72,5.09,5.09,0,0,1-.79-1.84l-.25-3.62a28.23,28.23,0,0,1-3.3,2.79,23.16,23.16,0,0,1-3.91,2.26,22.19,22.19,0,0,1-4.43,1.49,21.38,21.38,0,0,1-4.82.53,27.07,27.07,0,0,1-7.39-1,28.13,28.13,0,0,1-6.67-2.81,27.28,27.28,0,0,1-5.65-4.37,28.12,28.12,0,0,1-7.16-12.36,28.33,28.33,0,0,1,0-14.92,28.34,28.34,0,0,1,2.81-6.69,27.66,27.66,0,0,1,10-10A28.13,28.13,0,0,1,411,60a27.07,27.07,0,0,1,7.39-1,23.17,23.17,0,0,1,5.21.58,21.47,21.47,0,0,1,8.61,4.13,24.7,24.7,0,0,1,3.32,3.22l.6-4.56a12.85,12.85,0,0,1,.4-1.26,2.52,2.52,0,0,1,.47-.78,1.41,1.41,0,0,1,.71-.41,4.42,4.42,0,0,1,1.06-.11H443a7.94,7.94,0,0,1,1.37.13,4.68,4.68,0,0,1,1.23.41,2,2,0,0,1,1.2,2ZM402.5,86.94a17.48,17.48,0,0,0,1.2,6.46A16.8,16.8,0,0,0,407,98.75a15.9,15.9,0,0,0,5,3.64,14.64,14.64,0,0,0,6.29,1.34,15.61,15.61,0,0,0,6.46-1.34A16.57,16.57,0,0,0,430,98.75a17.25,17.25,0,0,0,3.49-5.35,16.84,16.84,0,0,0,0-12.88A17.25,17.25,0,0,0,430,75.17a17,17,0,0,0-5.22-3.66,15.47,15.47,0,0,0-6.46-1.37A14.51,14.51,0,0,0,412,71.51a16.28,16.28,0,0,0-5,3.66,16.8,16.8,0,0,0-3.32,5.35A17.35,17.35,0,0,0,402.5,86.94Z"/><path class="cls-1" d="M456.91,60.17a3.62,3.62,0,0,1,1.13-.32,10.88,10.88,0,0,1,1.13-.07h4.3a2.13,2.13,0,0,1,1.82.73,4.48,4.48,0,0,1,.74,1.83l.9,5.2a42.08,42.08,0,0,1,3.17-3.24,22.16,22.16,0,0,1,3.73-2.72,19.49,19.49,0,0,1,4.52-1.9,20.22,20.22,0,0,1,5.54-.71,26.83,26.83,0,0,1,7.4,1,27.16,27.16,0,0,1,6.56,2.81,26.74,26.74,0,0,1,5.52,4.35,27.43,27.43,0,0,1,4.25,5.65,28.54,28.54,0,0,1-4.25,34,26.5,26.5,0,0,1-5.52,4.37,27.23,27.23,0,0,1-14,3.81,20.85,20.85,0,0,1-5.09-.59,20.35,20.35,0,0,1-4.31-1.64,21.94,21.94,0,0,1-3.66-2.43,34.38,34.38,0,0,1-3.18-3v20.76a2.52,2.52,0,0,1-.64,1.75,2.42,2.42,0,0,1-1.92.73H458a2.91,2.91,0,0,1-1.77-.66,2.16,2.16,0,0,1-.87-1.82V62.3a2.21,2.21,0,0,1,.4-1.41A2.18,2.18,0,0,1,456.91,60.17Zm42.24,26.77a17.32,17.32,0,0,0-4.54-11.75,15.77,15.77,0,0,0-5-3.62,14.86,14.86,0,0,0-6.27-1.34A15.34,15.34,0,0,0,477,71.55a17.11,17.11,0,0,0-5.2,3.56,17.32,17.32,0,0,0-3.58,5.22,15.65,15.65,0,0,0-1.39,6.31v.3a16.41,16.41,0,0,0,1.3,6.48,17.54,17.54,0,0,0,3.54,5.37,17,17,0,0,0,5.24,3.66,15.36,15.36,0,0,0,6.42,1.37,14.58,14.58,0,0,0,6.27-1.37,15.73,15.73,0,0,0,5-3.66,17.52,17.52,0,0,0,4.54-11.85Z"/><path class="cls-1" d="M540.42,129.69a3.29,3.29,0,0,1-1,1.39,2.57,2.57,0,0,1-1.58.45h-8a2.51,2.51,0,0,1-1.65-.41,1.31,1.31,0,0,1-.44-1,4.81,4.81,0,0,1,.1-.85,1.83,1.83,0,0,1,.19-.64l7.51-19.14-19-46.34a.19.19,0,0,0,0-.13v-.38a2.57,2.57,0,0,1-.21-1.06,1.44,1.44,0,0,1,.51-1.16,2.47,2.47,0,0,1,1.58-.42h7.71a2.5,2.5,0,0,1,2.52,1.79l.77,2c.56,1.59,1.2,3.38,1.91,5.35s1.45,4,2.22,6.12l2.32,6.33c.79,2.12,1.52,4.11,2.22,6l1.9,5c.57,1.49,1,2.66,1.36,3.51l12.62-34.31a3.2,3.2,0,0,1,1-1.39,2.55,2.55,0,0,1,1.58-.45h8a2.48,2.48,0,0,1,1.64.41,1.29,1.29,0,0,1,.45,1,4.91,4.91,0,0,1-.11.85,1.62,1.62,0,0,1-.19.64Z"/></g></svg>