<svg xmlns="http://www.w3.org/2000/svg" viewBox="0 0 672.81 407.62"><defs><style>.cls-1{fill:#44444b;}.cls-2{fill:#fc3556;}.cls-3{fill:#6065ff;}</style></defs><title>ideia-logo</title><g id="logo-white-bkg-vertical"><path class="cls-1" d="M36.49,377.93a3.78,3.78,0,0,1,1.14-.54,3.61,3.61,0,0,1,.78-.1,1.51,1.51,0,0,1,1.16.72l1,1.32,2.84,4a2.75,2.75,0,0,1,.32.58,1.47,1.47,0,0,1,.12.54,1.72,1.72,0,0,1-.44,1.14,7.18,7.18,0,0,1-1.16,1,32.24,32.24,0,0,1-7.34,4,23.9,23.9,0,0,1-8.66,1.52,25.65,25.65,0,0,1-6.9-.94,26.28,26.28,0,0,1-11.53-6.72,26.19,26.19,0,0,1-4.14-5.3,26.06,26.06,0,0,1,0-26.56,26.19,26.19,0,0,1,4.14-5.3,26.28,26.28,0,0,1,11.53-6.72,26.24,26.24,0,0,1,15.3.42,25.44,25.44,0,0,1,7,3.68l0,0a10.63,10.63,0,0,0,1.1,1,1.55,1.55,0,0,1,.54,1.3c0,.16,0,.35,0,.56a1.1,1.1,0,0,1-.22.6l-3.28,5a2.2,2.2,0,0,1-1.76,1.2,2.56,2.56,0,0,1-1.52-.68,17.33,17.33,0,0,0-4.76-2.8,15,15,0,0,0-5.6-1.08,13.6,13.6,0,0,0-5.86,1.3,16.05,16.05,0,0,0-4.82,3.52,16.82,16.82,0,0,0-3.28,5.16,16.48,16.48,0,0,0,3.26,17.5,15.55,15.55,0,0,0,4.82,3.42,14,14,0,0,0,5.88,1.26A13.64,13.64,0,0,0,32,380.75,23.26,23.26,0,0,0,36.49,377.93Z"/><path class="cls-1" d="M50.37,365.93a26.15,26.15,0,0,1,7.71-18.62,26.76,26.76,0,0,1,5.32-4.08,27,27,0,0,1,6.25-2.64,26.27,26.27,0,0,1,13.93,0,26.51,26.51,0,0,1,6.25,2.64,27.22,27.22,0,0,1,5.3,4.08,26.17,26.17,0,0,1,7.71,18.62,25.71,25.71,0,0,1-.94,7,25.43,25.43,0,0,1-2.66,6.26,26.29,26.29,0,0,1-15.66,12,26.27,26.27,0,0,1-13.93,0,27,27,0,0,1-6.25-2.64,26.12,26.12,0,0,1-5.32-4.1,26.61,26.61,0,0,1-4.11-5.3,25.43,25.43,0,0,1-2.66-6.26A25.71,25.71,0,0,1,50.37,365.93Zm11.28,0A16.43,16.43,0,0,0,62.77,372a14.91,14.91,0,0,0,7.86,8.34,14.37,14.37,0,0,0,6,1.24,14,14,0,0,0,5.86-1.24A14.56,14.56,0,0,0,87.12,377a15.2,15.2,0,0,0,3.06-5,17.19,17.19,0,0,0,0-12.1,15.9,15.9,0,0,0-3.06-5.06,14.9,14.9,0,0,0-4.66-3.48,13.41,13.41,0,0,0-5.86-1.3,13.8,13.8,0,0,0-6,1.3,15.24,15.24,0,0,0-4.74,3.48,15.69,15.69,0,0,0-3.12,5.06A16.44,16.44,0,0,0,61.65,365.93Z"/><path class="cls-1" d="M130.28,391.25a19.76,19.76,0,0,1-5.94-1,14.48,14.48,0,0,1-4.84-2.67,12.6,12.6,0,0,1-3.26-4.28,13.38,13.38,0,0,1-1.2-5.79v-27h-4.6a2.53,2.53,0,0,1-1.74-.52,2.17,2.17,0,0,1-.58-1.71v-5.74a2,2,0,0,1,.58-1.63,2.69,2.69,0,0,1,1.74-.48H115c0-1.41,0-2.82,0-4.22s0-2.8,0-4.22a1.65,1.65,0,0,1,.5-1.26,4.37,4.37,0,0,1,1.54-.81l1.64-.59,2-.66q1-.31,2-.54a7.72,7.72,0,0,1,1.6-.21,1.71,1.71,0,0,1,1.62.67,3.76,3.76,0,0,1,.38,1.8c0,1.68,0,3.36,0,5s0,3.34,0,5H132a2.23,2.23,0,0,1,1.6.54,2.26,2.26,0,0,1,.56,1.69v5.46a2.52,2.52,0,0,1-.56,1.83,2.15,2.15,0,0,1-1.6.56h-5.76v7.59c0,.92,0,1.78,0,2.58s0,1.67,0,2.61v7.61a1,1,0,0,1,0,.16.41.41,0,0,0,0,.16v5.24a5.64,5.64,0,0,0,1,3.81,4.31,4.31,0,0,0,3.36,1.16,1.6,1.6,0,0,1,1.32.6,2.23,2.23,0,0,1,.48,1.44v5.56a2,2,0,0,1-2.2,2.2Z"/><path class="cls-1" d="M142.2,325.18a2.1,2.1,0,0,1,2.36-2.4h6.71a2.61,2.61,0,0,1,1.8.6,2.26,2.26,0,0,1,.69,1.8v6a2.79,2.79,0,0,1-.65,1.74,2.13,2.13,0,0,1-1.8.82H144.6c-1.6,0-2.4-.85-2.4-2.56Zm0,17.71a2.59,2.59,0,0,1,.6-1.74,2.2,2.2,0,0,1,1.76-.7h6.63a2.5,2.5,0,0,1,.91.18,2.55,2.55,0,0,1,.81.52,3.57,3.57,0,0,1,.61.78,2,2,0,0,1,.24,1v46c0,1.6-.85,2.4-2.53,2.4H144.6a2.12,2.12,0,0,1-2.4-2.4Z"/><path class="cls-1" d="M165.23,343a2.66,2.66,0,0,1,.7-1.91,2.6,2.6,0,0,1,1.94-.72H204A3.26,3.26,0,0,1,206,341a2.16,2.16,0,0,1,.8,1.86V348a5,5,0,0,1-.16,1.36,2.89,2.89,0,0,1-.76,1.12q-6.72,7.73-13.34,15.36t-13.34,15.36h25.12a2.77,2.77,0,0,1,1.92.64,2.58,2.58,0,0,1,.72,2v4.6a3,3,0,0,1-.72,1.9,2.33,2.33,0,0,1-1.92.9h-37a2.56,2.56,0,0,1-1.92-.86,2.82,2.82,0,0,1-.8-1.95v-4.16a4.77,4.77,0,0,1,.1-.9,2.16,2.16,0,0,1,.42-.86c1.18-1.33,2.52-2.87,4-4.6s3.12-3.57,4.8-5.51,3.41-3.91,5.18-5.92,3.51-4,5.2-5.93l4.82-5.5,4-4.61H167.87a2.65,2.65,0,0,1-1.94-.68,2.84,2.84,0,0,1-.7-2.11Z"/><path class="cls-1" d="M266.78,388.89a2.13,2.13,0,0,1-.3,1.18,2.25,2.25,0,0,1-.78.72,3.65,3.65,0,0,1-1.1.36,9,9,0,0,1-1.3.1h-5a2.08,2.08,0,0,1-1.78-.68,4.76,4.76,0,0,1-.74-1.72l-.24-3.4a25.8,25.8,0,0,1-3.1,2.62,22,22,0,0,1-3.66,2.12,21.64,21.64,0,0,1-4.16,1.4,20.46,20.46,0,0,1-4.52.5,25.77,25.77,0,0,1-6.94-.94,27.31,27.31,0,0,1-6.26-2.64,25.67,25.67,0,0,1-5.29-4.1,26.44,26.44,0,0,1-6.72-11.6,26.53,26.53,0,0,1,0-14,26.25,26.25,0,0,1,2.64-6.28,25.91,25.91,0,0,1,4.08-5.3,26.29,26.29,0,0,1,5.29-4.08,27.31,27.31,0,0,1,6.26-2.64,25.77,25.77,0,0,1,6.94-.94,21.4,21.4,0,0,1,4.88.54,20.8,20.8,0,0,1,4.34,1.52,20,20,0,0,1,3.74,2.36,22.89,22.89,0,0,1,3.12,3l.56-4.28a11.92,11.92,0,0,1,.38-1.18,2.5,2.5,0,0,1,.44-.74,1.36,1.36,0,0,1,.66-.38,4.61,4.61,0,0,1,1-.1h4a6.93,6.93,0,0,1,1.28.12,4.51,4.51,0,0,1,1.16.38,2.13,2.13,0,0,1,.82.72,2.06,2.06,0,0,1,.3,1.14Zm-41.6-23.08a16.43,16.43,0,0,0,1.13,6.06,15.66,15.66,0,0,0,3.11,5,15,15,0,0,0,4.7,3.42,13.79,13.79,0,0,0,5.9,1.26,14.68,14.68,0,0,0,6.06-1.26,15.44,15.44,0,0,0,4.9-3.42,16.1,16.1,0,0,0,3.28-5,15.8,15.8,0,0,0,0-12.08,16.1,16.1,0,0,0-3.28-5,15.82,15.82,0,0,0-4.9-3.44,14.54,14.54,0,0,0-6.06-1.28,13.65,13.65,0,0,0-5.9,1.28,15.43,15.43,0,0,0-4.7,3.44,15.66,15.66,0,0,0-3.11,5A16.3,16.3,0,0,0,225.18,365.81Z"/><path class="cls-1" d="M311.37,377.93a4,4,0,0,1,1.14-.54,3.61,3.61,0,0,1,.78-.1,1.49,1.49,0,0,1,1.16.72l1,1.32,2.84,4a2.75,2.75,0,0,1,.32.58,1.47,1.47,0,0,1,.12.54,1.72,1.72,0,0,1-.44,1.14,7.18,7.18,0,0,1-1.16,1,32.24,32.24,0,0,1-7.34,4,23.9,23.9,0,0,1-8.66,1.52,25.65,25.65,0,0,1-6.9-.94,26.62,26.62,0,0,1-15.67-12,26.06,26.06,0,0,1,0-26.56,26.53,26.53,0,0,1,15.67-12,25.88,25.88,0,0,1,22.34,4.1l0,0a10.63,10.63,0,0,0,1.1,1,1.55,1.55,0,0,1,.54,1.3c0,.16,0,.35,0,.56a1.1,1.1,0,0,1-.22.6l-3.28,5a2.2,2.2,0,0,1-1.76,1.2,2.56,2.56,0,0,1-1.52-.68,17.18,17.18,0,0,0-4.76-2.8,15,15,0,0,0-5.6-1.08,13.6,13.6,0,0,0-5.86,1.3,15.89,15.89,0,0,0-4.81,3.52,16.64,16.64,0,0,0-3.28,5.16,16.51,16.51,0,0,0,3.25,17.5,15.55,15.55,0,0,0,4.82,3.42,14,14,0,0,0,5.88,1.26,13.64,13.64,0,0,0,5.88-1.18A23,23,0,0,0,311.37,377.93Z"/><path class="cls-1" d="M327.13,325.18a2.11,2.11,0,0,1,2.36-2.4h6.72a2.64,2.64,0,0,1,1.8.6,2.29,2.29,0,0,1,.68,1.8v6a2.84,2.84,0,0,1-.64,1.74,2.15,2.15,0,0,1-1.8.82h-6.72c-1.6,0-2.4-.85-2.4-2.56Zm0,17.71a2.59,2.59,0,0,1,.6-1.74,2.22,2.22,0,0,1,1.76-.7h6.64a2.49,2.49,0,0,1,.9.18,2.72,2.72,0,0,1,.82.52,3.25,3.25,0,0,1,.6.78,2,2,0,0,1,.24,1v46q0,2.4-2.52,2.4h-6.64a2.12,2.12,0,0,1-2.4-2.4Z"/><path class="cls-1" d="M349.85,365.93a25.91,25.91,0,0,1,.94-7,25.87,25.87,0,0,1,6.77-11.6,26.41,26.41,0,0,1,11.57-6.72,26.27,26.27,0,0,1,13.93,0,26.68,26.68,0,0,1,6.25,2.64,27.22,27.22,0,0,1,5.3,4.08,26.11,26.11,0,0,1,6.77,11.6,26.15,26.15,0,0,1-2.66,20.28,27,27,0,0,1-4.11,5.3,26.13,26.13,0,0,1-11.55,6.74,26.27,26.27,0,0,1-13.93,0,27.12,27.12,0,0,1-6.26-2.64,26.34,26.34,0,0,1-5.31-4.1,27,27,0,0,1-4.12-5.3,26,26,0,0,1-3.59-13.26Zm11.27,0a16.63,16.63,0,0,0,1.12,6.06,15.35,15.35,0,0,0,3.12,5,15.13,15.13,0,0,0,4.74,3.36,14.45,14.45,0,0,0,6,1.24,14,14,0,0,0,5.86-1.24A14.67,14.67,0,0,0,386.6,377a15.2,15.2,0,0,0,3.06-5,17.19,17.19,0,0,0,0-12.1,15.9,15.9,0,0,0-3.06-5.06,15,15,0,0,0-4.66-3.48,13.41,13.41,0,0,0-5.86-1.3,13.88,13.88,0,0,0-6,1.3,15.48,15.48,0,0,0-4.74,3.48,16,16,0,0,0-3.12,5.06A16.64,16.64,0,0,0,361.12,365.93Z"/><path class="cls-1" d="M412,341.61a2.25,2.25,0,0,1,.92-.8,1.4,1.4,0,0,1,1-.34l1.2,0h4a2,2,0,0,1,1.72.76,4.57,4.57,0,0,1,.76,1.68l.44,4.24a17.48,17.48,0,0,1,2.26-2.68,15.11,15.11,0,0,1,3.18-2.36,18.23,18.23,0,0,1,4.2-1.68,20.55,20.55,0,0,1,5.31-.64,19.85,19.85,0,0,1,8.4,1.7,17.92,17.92,0,0,1,6.2,4.66,20.28,20.28,0,0,1,3.82,7,27.57,27.57,0,0,1,1.3,8.6v26.68a3.06,3.06,0,0,1-.68,2.16,2.55,2.55,0,0,1-2,.72H448a2.88,2.88,0,0,1-2.14-.6,3.2,3.2,0,0,1-.54-2.12V361.89a12.27,12.27,0,0,0-.72-4.14,11.3,11.3,0,0,0-2.1-3.62,10.12,10.12,0,0,0-3.42-2.56,11.15,11.15,0,0,0-8.53-.22,12.74,12.74,0,0,0-3.62,2.1,11.5,11.5,0,0,0-2.72,3.3,9.07,9.07,0,0,0-1.12,4.38v25.92c0,.5,0,1-.08,1.52a5,5,0,0,1-.34,1.36,2.39,2.39,0,0,1-.74,1,2,2,0,0,1-1.24.36h-6.6a2.66,2.66,0,0,1-1.94-.62,2.4,2.4,0,0,1-.62-1.78v-46A2.06,2.06,0,0,1,412,341.61Z"/><path class="cls-1" d="M507.43,385.65a28.82,28.82,0,0,1-7.7,4.72,24,24,0,0,1-9.18,1.72,26.07,26.07,0,0,1-10.24-2,26.81,26.81,0,0,1-14.26-13.94,24.87,24.87,0,0,1-2.14-10.3,26.59,26.59,0,0,1,.88-6.88,27.08,27.08,0,0,1,2.5-6.22,26.09,26.09,0,0,1,3.94-5.32,24.94,24.94,0,0,1,11.38-6.8,26.17,26.17,0,0,1,7.06-.94,24.89,24.89,0,0,1,6,.74,26.36,26.36,0,0,1,10.6,5.4,24.47,24.47,0,0,1,4.07,4.38,23.49,23.49,0,0,1,3.52,7.24A30.83,30.83,0,0,1,515,366a15.07,15.07,0,0,1-.1,1.94,2.32,2.32,0,0,1-.5,1.26,2.27,2.27,0,0,1-1.2.7,8.7,8.7,0,0,1-2.24.22H475.47a13.33,13.33,0,0,0,2,5.1,15.19,15.19,0,0,0,3.46,3.76,14.43,14.43,0,0,0,4.36,2.32,14.92,14.92,0,0,0,4.72.78,16.31,16.31,0,0,0,3.46-.36,18.1,18.1,0,0,0,3.1-1,17.53,17.53,0,0,0,2.66-1.38,16.39,16.39,0,0,0,2.14-1.62s0,0,0,0a5.34,5.34,0,0,1,.92-.7,1.7,1.7,0,0,1,.91-.26,1.83,1.83,0,0,1,.83.24,2.94,2.94,0,0,1,.89.8l1.84,2.2c.51.59.92,1.08,1.24,1.48a5.55,5.55,0,0,1,.7,1,1.88,1.88,0,0,1,.22.88A3,3,0,0,1,507.43,385.65Zm-17.76-36.08a12.76,12.76,0,0,0-4.6.86,15.69,15.69,0,0,0-4.1,2.34,16.26,16.26,0,0,0-3.24,3.48,14.22,14.22,0,0,0-2,4.32H504a15.38,15.38,0,0,0-1.93-4.46,14.52,14.52,0,0,0-3.14-3.48,14.15,14.15,0,0,0-4.2-2.26A15.86,15.86,0,0,0,489.67,349.57Z"/><path class="cls-1" d="M529.9,376.93a8.67,8.67,0,0,0,2.12,2.28,15,15,0,0,0,2.62,1.58,13.57,13.57,0,0,0,2.56.9,9.62,9.62,0,0,0,1.94.28,17.17,17.17,0,0,0,2.64-.24,10.9,10.9,0,0,0,2.86-.86,7,7,0,0,0,2.28-1.68,3.91,3.91,0,0,0,.94-2.7,4.28,4.28,0,0,0-.74-2.6,5.69,5.69,0,0,0-2-1.66,14.05,14.05,0,0,0-2.88-1.1q-1.62-.44-3.42-1a34,34,0,0,1-7.16-2.7,18.45,18.45,0,0,1-4.86-3.62,13,13,0,0,1-2.78-4.48,15.51,15.51,0,0,1-.88-5.32,13.62,13.62,0,0,1,1.28-5.92,13.39,13.39,0,0,1,3.6-4.6,16.91,16.91,0,0,1,5.58-3,23.44,23.44,0,0,1,7.22-1.06,22.86,22.86,0,0,1,5,.5,17,17,0,0,1,4.08,1.5,17.64,17.64,0,0,1,3.54,2.52,40.56,40.56,0,0,1,3.38,3.56,2.22,2.22,0,0,1,.6,1.4,1.78,1.78,0,0,1-.8,1.36c-.4.32-.88.72-1.42,1.2l-1.62,1.4a16.24,16.24,0,0,1-1.52,1.16,2.33,2.33,0,0,1-1.2.48,2.28,2.28,0,0,1-1.72-1,18.08,18.08,0,0,0-1.76-1.82,9.53,9.53,0,0,0-1.84-1.28,9.18,9.18,0,0,0-2.08-.76,11,11,0,0,0-2.44-.26,8.79,8.79,0,0,0-2.26.32,7.82,7.82,0,0,0-2.16,1,6.35,6.35,0,0,0-1.64,1.54,3.35,3.35,0,0,0-.66,2,3.11,3.11,0,0,0,.82,2.18A7.36,7.36,0,0,0,537.2,358a14.82,14.82,0,0,0,2.73,1.1l2.76.8a50,50,0,0,1,6.74,2.4,20.92,20.92,0,0,1,5.3,3.3,14,14,0,0,1,3.45,4.56,14.31,14.31,0,0,1,1.24,6.14,14.31,14.31,0,0,1-5.56,11.64,18.68,18.68,0,0,1-6.19,3.12,26.73,26.73,0,0,1-7.77,1.08,25.11,25.11,0,0,1-5.12-.54,21.81,21.81,0,0,1-5-1.68,19.35,19.35,0,0,1-4.4-2.92,16.23,16.23,0,0,1-3.38-4.22,3.61,3.61,0,0,1-.6-1.8,1.56,1.56,0,0,1,.26-.9,3.7,3.7,0,0,1,.7-.74l4.48-3.44a2.15,2.15,0,0,1,1.08-.36,1.5,1.5,0,0,1,1,.38A8.15,8.15,0,0,1,529.9,376.93Z"/><path class="cls-2" d="M569.9,340.69a3.37,3.37,0,0,1,1.06-.3,9.55,9.55,0,0,1,1.06-.06h4a2,2,0,0,1,1.7.68,4.26,4.26,0,0,1,.69,1.72l.84,4.88a40.69,40.69,0,0,1,3-3,21,21,0,0,1,3.5-2.56,18.75,18.75,0,0,1,4.24-1.78,19,19,0,0,1,5.2-.66,25.45,25.45,0,0,1,6.94.94,26.2,26.2,0,0,1,6.16,2.64,25.6,25.6,0,0,1,5.18,4.08,26.16,26.16,0,0,1,4,5.3,26.46,26.46,0,0,1,2.56,6.28,27.67,27.67,0,0,1,0,14,26.37,26.37,0,0,1-6.54,11.6,25,25,0,0,1-5.18,4.1,26.17,26.17,0,0,1-6.18,2.64,25.52,25.52,0,0,1-6.92.94,19.41,19.41,0,0,1-4.78-.56,19.11,19.11,0,0,1-4-1.54,21.38,21.38,0,0,1-3.44-2.28,35.64,35.64,0,0,1-3-2.78V404.4a2.39,2.39,0,0,1-.6,1.64,2.25,2.25,0,0,1-1.8.68h-6.63a2.68,2.68,0,0,1-1.66-.62,2,2,0,0,1-.82-1.7V342.69a1.87,1.87,0,0,1,1.44-2Zm39.63,25.12a16.31,16.31,0,0,0-4.26-11,14.84,14.84,0,0,0-4.7-3.4,13.8,13.8,0,0,0-5.88-1.26,14.57,14.57,0,0,0-5.94,1.24,16.13,16.13,0,0,0-8.24,8.24,14.8,14.8,0,0,0-1.3,5.92v.28a15.5,15.5,0,0,0,1.22,6.08,16.36,16.36,0,0,0,3.32,5,16,16,0,0,0,4.92,3.44,14.46,14.46,0,0,0,6,1.28,13.66,13.66,0,0,0,5.88-1.28,14.8,14.8,0,0,0,4.7-3.44,16.2,16.2,0,0,0,3.12-5A16.38,16.38,0,0,0,609.53,365.81Z"/><path class="cls-2" d="M648.25,405.92a3,3,0,0,1-.92,1.3,2.43,2.43,0,0,1-1.48.42h-7.52a2.29,2.29,0,0,1-1.54-.38,1.2,1.2,0,0,1-.42-.94,4.37,4.37,0,0,1,.1-.8,1.48,1.48,0,0,1,.18-.6l7-17.95-17.84-43.48a.21.21,0,0,0,0-.12V343a2.41,2.41,0,0,1-.2-1,1.34,1.34,0,0,1,.48-1.08,2.32,2.32,0,0,1,1.48-.4h7.24a2.36,2.36,0,0,1,2.36,1.68l.72,1.88q.79,2.25,1.8,5c.66,1.86,1.36,3.77,2.08,5.74s1.44,3.95,2.18,5.94,1.42,3.85,2.08,5.6,1.24,3.32,1.78,4.72,1,2.5,1.28,3.3l11.83-32.2a3.06,3.06,0,0,1,.92-1.3,2.43,2.43,0,0,1,1.48-.42h7.52a2.35,2.35,0,0,1,1.54.38,1.23,1.23,0,0,1,.42.94,4.18,4.18,0,0,1-.1.8,1.36,1.36,0,0,1-.18.6Z"/><path class="cls-2" d="M444.42,63V222.69a55.59,55.59,0,0,1-55.66,55.67H229l89.07-89.07v44.54h70.62A11.17,11.17,0,0,0,399.88,223a2.81,2.81,0,0,0,0-.29V107.5Z"/><path class="cls-3" d="M444.4,0H284.72a55.59,55.59,0,0,0-55.67,55.67V215.38l44.54-44.53V55.72a11.16,11.16,0,0,1,11.16-11.16h70.91l-.29.28V89.05l44.5-44.49,0,0h0L444.4,0Z"/></g></svg>