<svg xmlns="http://www.w3.org/2000/svg" viewBox="0 0 879.75 174"><defs><style>.cls-1{fill:#fc3556;}.cls-2{fill:#6065ff;}.cls-3{font-size:85.26px;fill:#fff;font-family:COCOGOOSE-DemiBold, COCOGOOSE;font-weight:300;}</style></defs><title>ideia-logo</title><g id="logo-dark-bkg"><path class="cls-1" d="M134.66,39.36V139.2A34.73,34.73,0,0,1,99.86,174H0L55.7,118.32v27.84H99.84a7,7,0,0,0,7-6.8V67.19Z"/><path class="cls-2" d="M134.63,0H34.82a35.48,35.48,0,0,0-7,.69A34.82,34.82,0,0,0,0,34.81v99.82l27.84-27.84v-72a7,7,0,0,1,7-7H79.16L79,28V55.66L106.8,27.85l0,0h0L134.63,0Z"/><text class="cls-3" transform="translate(159.06 114.05)">cotizaciones<tspan class="cls-1" x="603.3" y="0">py</tspan></text></g></svg>