<svg xmlns="http://www.w3.org/2000/svg" viewBox="0 0 672.81 407.62"><defs><style>.cls-1{font-size:79.99px;fill:#44444b;font-family:COCOGOOSE-DemiBold, COCOGOOSE;font-weight:300;}.cls-2{fill:#fc3556;}.cls-3{fill:#6065ff;}</style></defs><title>ideia-logo</title><g id="logo-white-bkg-vertical"><text class="cls-1" transform="translate(-3.22 391.25)">cotizaciones<tspan class="cls-2" x="566.04" y="0">py</tspan></text><path class="cls-2" d="M444.42,63V222.69a55.59,55.59,0,0,1-55.66,55.67H229l89.07-89.07v44.54h70.62A11.17,11.17,0,0,0,399.88,223a2.81,2.81,0,0,0,0-.29V107.5Z"/><path class="cls-3" d="M444.4,0H284.72a55.59,55.59,0,0,0-55.67,55.67V215.38l44.54-44.53V55.72a11.16,11.16,0,0,1,11.16-11.16h70.91l-.29.28V89.05l44.5-44.49,0,0h0L444.4,0Z"/></g></svg>