<svg xmlns="http://www.w3.org/2000/svg" viewBox="0 0 672.9 407.88"><defs><style>.cls-1{fill:#fff;}.cls-2{fill:#fc3556;}.cls-3{fill:#6065ff;}</style></defs><title>ideia-logo</title><g id="logo-dark-bkg-vertical"><path class="cls-1" d="M36.52,378a3.35,3.35,0,0,1,1.14-.54,3.61,3.61,0,0,1,.78-.1,1.48,1.48,0,0,1,1.16.72l1,1.32,2.84,4a2.75,2.75,0,0,1,.32.58,1.47,1.47,0,0,1,.12.54,1.67,1.67,0,0,1-.44,1.13,6.68,6.68,0,0,1-1.16,1,31.69,31.69,0,0,1-7.34,4,23.73,23.73,0,0,1-8.66,1.52,25.25,25.25,0,0,1-6.9-.94,25.79,25.79,0,0,1-6.24-2.64,26.81,26.81,0,0,1-9.44-9.37,26.06,26.06,0,0,1,0-26.56,26.5,26.5,0,0,1,15.68-12,25.25,25.25,0,0,1,6.9-.94,25.59,25.59,0,0,1,8.4,1.36,25.31,25.31,0,0,1,7,3.68l0,0a12,12,0,0,0,1.1,1,1.54,1.54,0,0,1,.54,1.3c0,.16,0,.35,0,.56a1.26,1.26,0,0,1-.22.6l-3.28,5a2.2,2.2,0,0,1-1.76,1.2,2.56,2.56,0,0,1-1.52-.68,17.08,17.08,0,0,0-4.76-2.8,15,15,0,0,0-5.6-1.08,13.46,13.46,0,0,0-5.86,1.3,15.93,15.93,0,0,0-4.82,3.52,16.82,16.82,0,0,0-3.28,5.16,16.48,16.48,0,0,0,3.26,17.5,15.44,15.44,0,0,0,4.82,3.42A14,14,0,0,0,26.12,382,13.64,13.64,0,0,0,32,380.86,23.26,23.26,0,0,0,36.52,378Z"/><path class="cls-1" d="M50.4,366a25.91,25.91,0,0,1,.94-7,26.15,26.15,0,0,1,12.09-15.68,26.86,26.86,0,0,1,6.25-2.64,26.27,26.27,0,0,1,13.93,0,26.35,26.35,0,0,1,11.55,6.72,25.78,25.78,0,0,1,4.11,5.3,26.28,26.28,0,0,1,2.66,6.3,26.15,26.15,0,0,1-2.66,20.28,26.9,26.9,0,0,1-4.11,5.3,26.51,26.51,0,0,1-5.3,4.09,25.87,25.87,0,0,1-6.25,2.64,26.27,26.27,0,0,1-13.93,0,26.45,26.45,0,0,1-11.57-6.73A27.33,27.33,0,0,1,54,379.3,26,26,0,0,1,50.4,366Zm11.28,0a16.43,16.43,0,0,0,1.12,6.06,15.37,15.37,0,0,0,3.11,5,15.13,15.13,0,0,0,4.74,3.36,14.45,14.45,0,0,0,6,1.24,14,14,0,0,0,5.86-1.24,14.56,14.56,0,0,0,4.66-3.36,15.41,15.41,0,0,0,3.06-5,17.19,17.19,0,0,0,0-12.1,15.9,15.9,0,0,0-3.06-5.06,14.9,14.9,0,0,0-4.66-3.48,13.27,13.27,0,0,0-5.86-1.3,13.73,13.73,0,0,0-6,1.3,15.48,15.48,0,0,0-4.74,3.48A15.84,15.84,0,0,0,62.8,360,16.44,16.44,0,0,0,61.68,366Z"/><path class="cls-1" d="M130.31,391.35a19.15,19.15,0,0,1-5.94-1,14.29,14.29,0,0,1-4.84-2.66,12.48,12.48,0,0,1-3.26-4.28,13.44,13.44,0,0,1-1.2-5.79v-27h-4.6a2.5,2.5,0,0,1-1.74-.52,2.17,2.17,0,0,1-.58-1.71v-5.74a2,2,0,0,1,.58-1.63,2.66,2.66,0,0,1,1.74-.48h4.6c0-1.41,0-2.82,0-4.22s0-2.8,0-4.22a1.61,1.61,0,0,1,.5-1.26,4.44,4.44,0,0,1,1.54-.82l1.64-.58,2-.66q1-.32,2-.54a7.83,7.83,0,0,1,1.6-.22,1.72,1.72,0,0,1,1.62.68,3.76,3.76,0,0,1,.38,1.8c0,1.68,0,3.36,0,5s0,3.34,0,5h5.76a2.23,2.23,0,0,1,1.6.54,2.26,2.26,0,0,1,.56,1.69v5.46a2.52,2.52,0,0,1-.56,1.83,2.19,2.19,0,0,1-1.6.56h-5.76v7.59c0,.92,0,1.78,0,2.58s0,1.67,0,2.6V371a.78.78,0,0,1,0,.16.47.47,0,0,0,0,.16v5.25a5.59,5.59,0,0,0,1,3.8,4.28,4.28,0,0,0,3.36,1.17,1.62,1.62,0,0,1,1.32.59,2.26,2.26,0,0,1,.48,1.45v5.55a2,2,0,0,1-2.2,2.2Z"/><path class="cls-1" d="M142.23,325.29a2.11,2.11,0,0,1,2.35-2.41h6.72a2.57,2.57,0,0,1,1.8.61,2.25,2.25,0,0,1,.68,1.8v6a2.78,2.78,0,0,1-.64,1.75,2.13,2.13,0,0,1-1.8.82h-6.72c-1.6,0-2.39-.85-2.39-2.57Zm0,17.71a2.59,2.59,0,0,1,.59-1.74,2.2,2.2,0,0,1,1.76-.7h6.64a2.41,2.41,0,0,1,.9.18,2.43,2.43,0,0,1,.82.52,3.25,3.25,0,0,1,.6.78,2,2,0,0,1,.24,1V389q0,2.4-2.52,2.4h-6.64a2.11,2.11,0,0,1-2.39-2.4Z"/><path class="cls-1" d="M165.26,343.11a2.45,2.45,0,0,1,2.64-2.63h36.16a3.19,3.19,0,0,1,1.92.58,2.16,2.16,0,0,1,.8,1.86v5.16a5,5,0,0,1-.16,1.36,2.89,2.89,0,0,1-.76,1.12q-6.72,7.72-13.34,15.36l-13.34,15.36H204.3a2.77,2.77,0,0,1,1.92.64,2.57,2.57,0,0,1,.72,2v4.6a3,3,0,0,1-.72,1.9,2.33,2.33,0,0,1-1.92.9h-37a2.5,2.5,0,0,1-1.92-.86,2.78,2.78,0,0,1-.8-1.94v-4.16a3.94,3.94,0,0,1,.1-.9,2.09,2.09,0,0,1,.42-.86l4-4.61c1.52-1.73,3.12-3.57,4.8-5.5s3.41-3.91,5.18-5.93l5.2-5.92,4.82-5.51c1.52-1.73,2.86-3.27,4-4.6H167.9a2.68,2.68,0,0,1-1.94-.68,2.8,2.8,0,0,1-.7-2.11Z"/><path class="cls-1" d="M266.81,389a2.11,2.11,0,0,1-.3,1.18,2.07,2.07,0,0,1-.78.72,3.17,3.17,0,0,1-1.1.36,7.87,7.87,0,0,1-1.3.1h-5a2.05,2.05,0,0,1-1.78-.68,4.61,4.61,0,0,1-.74-1.72l-.24-3.39a24.85,24.85,0,0,1-3.1,2.61,21.3,21.3,0,0,1-3.66,2.12,21,21,0,0,1-4.16,1.4,20,20,0,0,1-4.52.5,25.38,25.38,0,0,1-6.94-.94,26.45,26.45,0,0,1-6.26-2.64,26,26,0,0,1-5.3-4.09,26.44,26.44,0,0,1-6.72-11.6,26.81,26.81,0,0,1,0-14,27.09,27.09,0,0,1,2.64-6.28,26.35,26.35,0,0,1,4.08-5.3,25.91,25.91,0,0,1,5.3-4.08,27.31,27.31,0,0,1,6.26-2.64,25.38,25.38,0,0,1,6.94-.94,21.47,21.47,0,0,1,4.88.54,20.8,20.8,0,0,1,4.34,1.52,19.52,19.52,0,0,1,3.74,2.36,22.89,22.89,0,0,1,3.12,3l.56-4.28a11.92,11.92,0,0,1,.38-1.18,2.38,2.38,0,0,1,.44-.74,1.28,1.28,0,0,1,.66-.38,4.06,4.06,0,0,1,1-.1h4a7,7,0,0,1,1.28.12,4.65,4.65,0,0,1,1.16.38,1.94,1.94,0,0,1,1.12,1.86Zm-41.6-23.07a16.63,16.63,0,0,0,1.12,6.06,16,16,0,0,0,3.12,5,15,15,0,0,0,4.7,3.42,13.79,13.79,0,0,0,5.9,1.26,14.68,14.68,0,0,0,6.06-1.26A15.55,15.55,0,0,0,251,377a16.22,16.22,0,0,0,3.28-5,15.8,15.8,0,0,0,0-12.08,16.1,16.1,0,0,0-3.28-5,15.77,15.77,0,0,0-4.9-3.44,14.54,14.54,0,0,0-6.06-1.28,13.65,13.65,0,0,0-5.9,1.28,15.26,15.26,0,0,0-4.7,3.44,15.86,15.86,0,0,0-3.12,5A16.5,16.5,0,0,0,225.21,365.92Z"/><path class="cls-1" d="M311.4,378a3.35,3.35,0,0,1,1.14-.54,3.61,3.61,0,0,1,.78-.1,1.48,1.48,0,0,1,1.16.72l1,1.32,2.84,4a2.75,2.75,0,0,1,.32.58,1.47,1.47,0,0,1,.12.54,1.67,1.67,0,0,1-.44,1.13,6.33,6.33,0,0,1-1.16,1,31.49,31.49,0,0,1-7.34,4,23.73,23.73,0,0,1-8.66,1.52,25.25,25.25,0,0,1-6.9-.94,26.13,26.13,0,0,1-6.24-2.64,26.46,26.46,0,0,1-5.3-4.08,26.16,26.16,0,0,1-4.13-5.29,26.06,26.06,0,0,1,0-26.56,26.59,26.59,0,0,1,9.43-9.38,27,27,0,0,1,6.24-2.64,25.25,25.25,0,0,1,6.9-.94,25.59,25.59,0,0,1,8.4,1.36,25.17,25.17,0,0,1,7,3.68l0,0a12,12,0,0,0,1.1,1,1.54,1.54,0,0,1,.54,1.3c0,.16,0,.35,0,.56a1.16,1.16,0,0,1-.22.6l-3.28,5a2.2,2.2,0,0,1-1.76,1.2,2.56,2.56,0,0,1-1.52-.68,17.08,17.08,0,0,0-4.76-2.8,15,15,0,0,0-5.6-1.08,13.46,13.46,0,0,0-5.86,1.3,16.05,16.05,0,0,0-4.82,3.52,16.82,16.82,0,0,0-3.28,5.16,16.48,16.48,0,0,0,3.26,17.5,15.55,15.55,0,0,0,4.82,3.42A14,14,0,0,0,301,382a13.64,13.64,0,0,0,5.88-1.18A23.26,23.26,0,0,0,311.4,378Z"/><path class="cls-1" d="M327.16,325.29a2.11,2.11,0,0,1,2.36-2.41h6.72a2.6,2.6,0,0,1,1.8.61,2.29,2.29,0,0,1,.68,1.8v6a2.84,2.84,0,0,1-.64,1.75,2.15,2.15,0,0,1-1.8.82h-6.72c-1.6,0-2.4-.85-2.4-2.57Zm0,17.71a2.59,2.59,0,0,1,.6-1.74,2.17,2.17,0,0,1,1.76-.7h6.64a2.49,2.49,0,0,1,.9.18,2.54,2.54,0,0,1,.82.52,3.25,3.25,0,0,1,.6.78,2,2,0,0,1,.24,1V389q0,2.4-2.52,2.4h-6.64a2.12,2.12,0,0,1-2.4-2.4Z"/><path class="cls-1" d="M349.87,366a26.31,26.31,0,0,1,.94-7,26.69,26.69,0,0,1,2.66-6.3,26.38,26.38,0,0,1,9.43-9.38,27.12,27.12,0,0,1,6.26-2.64,26.24,26.24,0,0,1,13.92,0,26.58,26.58,0,0,1,6.26,2.64,26.22,26.22,0,0,1,9.41,36,27.33,27.33,0,0,1-4.12,5.3,26.17,26.17,0,0,1-5.29,4.09,25.77,25.77,0,0,1-6.26,2.64,26.24,26.24,0,0,1-13.92,0,26.31,26.31,0,0,1-11.57-6.73,27.33,27.33,0,0,1-4.12-5.3,25.91,25.91,0,0,1-3.6-13.26Zm11.28,0a16.63,16.63,0,0,0,1.12,6.06,15.56,15.56,0,0,0,3.12,5,15.13,15.13,0,0,0,4.74,3.36,14.45,14.45,0,0,0,6,1.24,14,14,0,0,0,5.86-1.24,14.67,14.67,0,0,0,4.66-3.36,15.59,15.59,0,0,0,3.06-5,17.19,17.19,0,0,0,0-12.1,16.08,16.08,0,0,0-3.06-5.06,15,15,0,0,0-4.66-3.48,13.27,13.27,0,0,0-5.86-1.3,13.73,13.73,0,0,0-6,1.3,15.48,15.48,0,0,0-4.74,3.48,16,16,0,0,0-3.12,5.06A16.64,16.64,0,0,0,361.15,366Z"/><path class="cls-1" d="M412,341.72a2.17,2.17,0,0,1,.92-.8,1.36,1.36,0,0,1,1-.34l1.2,0h4a2,2,0,0,1,1.72.76,4.26,4.26,0,0,1,.76,1.68l.44,4.24a18.17,18.17,0,0,1,2.26-2.68,15.28,15.28,0,0,1,3.18-2.36,18.6,18.6,0,0,1,4.2-1.68,20.26,20.26,0,0,1,5.32-.64,19.85,19.85,0,0,1,8.4,1.7,17.89,17.89,0,0,1,6.2,4.66,20.26,20.26,0,0,1,3.82,7,27.57,27.57,0,0,1,1.3,8.6v26.67a3.06,3.06,0,0,1-.68,2.16,2.57,2.57,0,0,1-2,.72H448a2.86,2.86,0,0,1-2.14-.6,3.18,3.18,0,0,1-.54-2.12V362a12.23,12.23,0,0,0-.72-4.14,11.3,11.3,0,0,0-2.1-3.62,10.12,10.12,0,0,0-3.42-2.56,11.18,11.18,0,0,0-8.54-.22,12.41,12.41,0,0,0-3.62,2.1,11.66,11.66,0,0,0-2.72,3.3,9.19,9.19,0,0,0-1.12,4.38v25.91a12.79,12.79,0,0,1-.08,1.52,4.31,4.31,0,0,1-.34,1.36,2.3,2.3,0,0,1-.74,1,2,2,0,0,1-1.24.36h-6.59a2.61,2.61,0,0,1-1.94-.62,2.37,2.37,0,0,1-.62-1.78v-46A2.06,2.06,0,0,1,412,341.72Z"/><path class="cls-1" d="M507.45,385.75a28.26,28.26,0,0,1-7.7,4.72,23.77,23.77,0,0,1-9.17,1.72,26.07,26.07,0,0,1-10.24-2,26.74,26.74,0,0,1-14.26-13.93,24.87,24.87,0,0,1-2.14-10.3,26.82,26.82,0,0,1,3.38-13.1,25.82,25.82,0,0,1,3.94-5.32,24.94,24.94,0,0,1,11.38-6.8,25.78,25.78,0,0,1,7.06-.94,24.75,24.75,0,0,1,6,.74,25.78,25.78,0,0,1,5.62,2.1,26.56,26.56,0,0,1,5,3.3,23.69,23.69,0,0,1,7.6,11.62,30.83,30.83,0,0,1,1.12,8.6,15.07,15.07,0,0,1-.1,1.94,2.1,2.1,0,0,1-1.7,2,9.17,9.17,0,0,1-2.24.22H475.5a13.33,13.33,0,0,0,2,5.1,15.19,15.19,0,0,0,3.46,3.76,14.65,14.65,0,0,0,4.36,2.32,14.9,14.9,0,0,0,4.72.77,16.31,16.31,0,0,0,3.46-.35,18,18,0,0,0,3.09-1,17.07,17.07,0,0,0,2.66-1.38,15.14,15.14,0,0,0,2.14-1.62,0,0,0,0,1,0,0,5.22,5.22,0,0,1,.92-.7,1.74,1.74,0,0,1,.92-.26,1.79,1.79,0,0,1,.82.24,2.74,2.74,0,0,1,.9.8c.72.88,1.34,1.61,1.84,2.2s.92,1.08,1.24,1.48a5.55,5.55,0,0,1,.7,1,1.88,1.88,0,0,1,.22.88A3,3,0,0,1,507.45,385.75ZM489.7,349.68a12.76,12.76,0,0,0-4.6.86,15.14,15.14,0,0,0-4.1,2.34,16.26,16.26,0,0,0-3.24,3.48,14,14,0,0,0-2,4.32h28.31a15.13,15.13,0,0,0-1.94-4.46,13.94,13.94,0,0,0-3.14-3.48,13.69,13.69,0,0,0-4.2-2.26A15.75,15.75,0,0,0,489.7,349.68Z"/><path class="cls-1" d="M529.93,377a8.67,8.67,0,0,0,2.12,2.28,15,15,0,0,0,2.62,1.58,13.57,13.57,0,0,0,2.56.9,9.62,9.62,0,0,0,1.94.28,17.39,17.39,0,0,0,2.64-.24,11,11,0,0,0,2.86-.86A7.11,7.11,0,0,0,547,379.3a4,4,0,0,0,.94-2.7,4.26,4.26,0,0,0-.74-2.6,5.78,5.78,0,0,0-2-1.66,14.05,14.05,0,0,0-2.88-1.1l-3.42-1a34,34,0,0,1-7.16-2.7,18.67,18.67,0,0,1-4.86-3.62,13,13,0,0,1-2.78-4.48,15.51,15.51,0,0,1-.88-5.32,13.62,13.62,0,0,1,1.28-5.92,13.3,13.3,0,0,1,3.6-4.6,16.91,16.91,0,0,1,5.58-3,25.17,25.17,0,0,1,12.22-.56,16.3,16.3,0,0,1,4.08,1.5,17.64,17.64,0,0,1,3.54,2.52,39.2,39.2,0,0,1,3.38,3.56,2.22,2.22,0,0,1,.6,1.4,1.79,1.79,0,0,1-.8,1.36c-.4.32-.88.72-1.42,1.2l-1.62,1.4a18.17,18.17,0,0,1-1.52,1.16,2.33,2.33,0,0,1-1.2.48,2.31,2.31,0,0,1-1.72-1,19.24,19.24,0,0,0-1.76-1.82,9.11,9.11,0,0,0-1.84-1.28,8.89,8.89,0,0,0-2.08-.76,11,11,0,0,0-2.44-.26,8.73,8.73,0,0,0-2.26.32,7.27,7.27,0,0,0-2.16,1,6.35,6.35,0,0,0-1.64,1.54,3.33,3.33,0,0,0-.66,2,3.11,3.11,0,0,0,.82,2.18,7.45,7.45,0,0,0,2.07,1.56,15.67,15.67,0,0,0,2.74,1.1l2.76.8a50.48,50.48,0,0,1,6.74,2.4,20.15,20.15,0,0,1,5.29,3.3,13.87,13.87,0,0,1,3.46,4.56,14.28,14.28,0,0,1,1.24,6.14,14.69,14.69,0,0,1-1.48,6.66,14.42,14.42,0,0,1-4.08,5,18.88,18.88,0,0,1-6.19,3.12,26.73,26.73,0,0,1-7.77,1.08,25.11,25.11,0,0,1-5.12-.54,21.81,21.81,0,0,1-5-1.68,19,19,0,0,1-4.4-2.92,15.82,15.82,0,0,1-3.38-4.21,3.61,3.61,0,0,1-.6-1.8,1.56,1.56,0,0,1,.26-.9,3.44,3.44,0,0,1,.7-.74l4.48-3.44a2.15,2.15,0,0,1,1.08-.36,1.46,1.46,0,0,1,1,.38A8.15,8.15,0,0,1,529.93,377Z"/><path class="cls-2" d="M569.92,340.8a3.44,3.44,0,0,1,1.06-.3,9.69,9.69,0,0,1,1.06-.06h4a2,2,0,0,1,1.7.68,4.07,4.07,0,0,1,.7,1.72l.84,4.88a38.86,38.86,0,0,1,3-3,21,21,0,0,1,3.5-2.56,18.12,18.12,0,0,1,4.24-1.78,19,19,0,0,1,5.2-.66,25.07,25.07,0,0,1,6.94.94,26.2,26.2,0,0,1,6.16,2.64,24.92,24.92,0,0,1,5.18,4.08,26.25,26.25,0,0,1,4,5.3,26.82,26.82,0,0,1-4,31.88,25,25,0,0,1-5.18,4.09,25.58,25.58,0,0,1-13.1,3.58,18.88,18.88,0,0,1-4.78-.56,18.08,18.08,0,0,1-4-1.54,20.68,20.68,0,0,1-3.44-2.27,34.16,34.16,0,0,1-3-2.79v19.48a2.39,2.39,0,0,1-.6,1.64,2.25,2.25,0,0,1-1.8.68H571a2.7,2.7,0,0,1-1.66-.62,2,2,0,0,1-.82-1.7V342.8a2.09,2.09,0,0,1,.38-1.32A2.06,2.06,0,0,1,569.92,340.8Zm39.64,25.12a16.31,16.31,0,0,0-4.26-11,14.8,14.8,0,0,0-4.7-3.4,13.8,13.8,0,0,0-5.88-1.26,14.34,14.34,0,0,0-5.94,1.24,16.13,16.13,0,0,0-8.24,8.24,14.76,14.76,0,0,0-1.3,5.92v.28a15.5,15.5,0,0,0,1.22,6.08,16.36,16.36,0,0,0,3.32,5,16.15,16.15,0,0,0,4.92,3.44,14.46,14.46,0,0,0,6,1.28,13.66,13.66,0,0,0,5.88-1.28,15.07,15.07,0,0,0,4.7-3.44,16.2,16.2,0,0,0,3.12-5A16.38,16.38,0,0,0,609.56,365.92Z"/><path class="cls-2" d="M648.27,406a2.92,2.92,0,0,1-.92,1.3,2.39,2.39,0,0,1-1.48.42h-7.52a2.34,2.34,0,0,1-1.53-.38,1.2,1.2,0,0,1-.42-.94,4.37,4.37,0,0,1,.1-.8,1.48,1.48,0,0,1,.18-.6l7-18L625.88,343.6a.21.21,0,0,0,0-.12v-.36a2.29,2.29,0,0,1-.2-1,1.34,1.34,0,0,1,.48-1.08,2.32,2.32,0,0,1,1.48-.4h7.24a2.36,2.36,0,0,1,2.36,1.68l.72,1.88c.53,1.49,1.13,3.17,1.8,5s1.35,3.77,2.07,5.74,1.45,4,2.18,5.94,1.43,3.85,2.08,5.6,1.25,3.32,1.78,4.72,1,2.5,1.28,3.3L661,342.32a3,3,0,0,1,.92-1.3,2.43,2.43,0,0,1,1.48-.42h7.52a2.35,2.35,0,0,1,1.54.38,1.22,1.22,0,0,1,.42.94,4.27,4.27,0,0,1-.1.8,1.73,1.73,0,0,1-.18.6Z"/><path class="cls-2" d="M444.45,63.08V222.8a55.59,55.59,0,0,1-55.67,55.67H229.06l89.07-89.07v44.53h70.62a11.16,11.16,0,0,0,11.16-10.88,2.62,2.62,0,0,0,0-.28V107.61Z"/><path class="cls-3" d="M444.43.13H284.75A55.58,55.58,0,0,0,229.08,55.8V215.49L273.61,171V55.83a11.18,11.18,0,0,1,11.17-11.17h70.91l-.29.29V89.16l44.5-44.5,0,0h0L444.43.13Z"/></g></svg>